<svg width="94" height="119" viewBox="0 0 94 119" fill="none" xmlns="http://www.w3.org/2000/svg">
<path d="M1 7.04898V2.73182H5.31925C5.31925 2.73182 7.12257 6.37756 8.99061 5.96969C10.5233 5.63505 11.3662 2.73182 11.3662 2.73182H15.4695C15.4695 2.73182 17.7035 5.63494 19.5728 5.32212C21.2795 5.0365 22.5962 2.08425 22.5962 2.08425H26.2676C26.2676 2.08425 28.2119 4.98626 29.939 4.67455C31.4693 4.39833 32.5305 1.65253 32.5305 1.65253H34.0423C34.0423 1.65253 36.6105 4.94249 38.7934 4.67455C40.6369 4.44826 42.4648 1.65253 42.4648 1.65253H45.9202C45.9202 1.65253 47.2867 4.46753 48.9437 4.67455C50.852 4.91298 52.831 1.65253 52.831 1.65253H55.6385C55.6385 1.65253 57.6294 4.35482 59.5258 4.67455C61.9816 5.08858 62.6561 1.48406 65.1408 1.65253C67.176 1.79053 67.6418 4.39415 69.6761 4.24283C71.712 4.09138 71.7427 1.14742 73.7793 1.00496C76.0196 0.848255 76.2952 4.45869 78.5305 4.24283C80.4975 4.05288 80.4419 1.03213 82.4178 1.00496C84.2903 0.979215 84.5396 4.43489 86.3052 3.81111C87.5624 3.36691 88.2488 1.00496 88.2488 1.00496H93V5.53798C93 5.53798 89.446 7.72175 89.9765 9.63928C90.3768 11.0859 93 12.0137 93 12.0137V16.9785C93 16.9785 90.5247 18.9441 90.6244 20.648C90.716 22.2134 93 23.8859 93 23.8859V29.2824C93 29.2824 89.873 31.5442 89.9765 33.5995C90.0733 35.5194 93 37.485 93 37.485V42.8814C93 42.8814 90.5202 44.7017 90.6244 46.3351C90.72 47.833 93 49.3572 93 49.3572V54.106C93 54.106 89.6533 55.8107 89.5446 57.7756C89.429 59.8663 93 61.8769 93 61.8769V67.0575C93 67.0575 89.9169 68.5668 89.9765 70.2954C90.0341 71.9634 93 73.3174 93 73.3174V77.8504C93 77.8504 89.9169 79.3597 89.9765 81.0883C90.0341 82.7563 93 84.1103 93 84.1103V87.564C93 87.564 89.9765 89.3771 89.9765 91.2336C89.9765 93.0901 93 94.9032 93 94.9032V99.0045C93 99.0045 89.6024 100.552 89.5446 102.458C89.485 104.425 93 106.128 93 106.128V109.797C93 109.797 90.1046 110.511 89.9765 111.956C89.8393 113.504 93 114.546 93 114.546V117.352L88.0329 118C88.0329 118 86.3277 114.443 84.3615 114.546C82.6897 114.634 81.1221 117.352 81.1221 117.352H78.0986C78.0986 117.352 76.6816 114.422 75.0751 114.546C73.5874 114.661 72.4836 117.352 72.4836 117.352H69.6761C69.6761 117.352 67.9416 114.299 66.2207 114.546C64.7438 114.759 63.6291 117.352 63.6291 117.352H60.3897C60.3897 117.352 58.9764 114.487 57.3662 114.546C55.8167 114.604 54.5587 117.352 54.5587 117.352H49.8075C49.8075 117.352 47.9143 114.237 46.1362 114.546C44.6662 114.802 43.5446 117.352 43.5446 117.352H40.3052C40.3052 117.352 38.7355 114.427 37.0657 114.546C35.5191 114.657 34.2582 117.352 34.2582 117.352H31.6667C31.6667 117.352 29.4717 114.189 27.5634 114.546C26.0394 114.832 24.7559 117.352 24.7559 117.352H21.5164C21.5164 117.352 19.7494 113.943 17.8451 114.115C16.2403 114.259 14.8216 116.921 14.8216 116.921H11.7981C11.7981 116.921 10.385 114.17 8.77465 114.115C7.10156 114.057 5.53521 116.921 5.53521 116.921H2.07981L1 114.115C1 114.115 3.37559 113.209 3.37559 111.956C3.37559 110.703 1 109.797 1 109.797V107.639C1 107.639 3.68492 106.407 4.02347 104.833C4.45609 102.821 1 100.516 1 100.516V96.1983C1 96.1983 3.86814 94.6831 4.02347 92.9605C4.19611 91.046 1 89.075 1 89.075V84.542C1 84.542 3.58496 83.2856 4.02347 81.7359C4.6415 79.5517 1 76.7711 1 76.7711V72.8857C1 72.8857 3.87339 71.2179 4.02347 69.432C4.19009 67.4494 1 65.3307 1 65.3307V60.5818C1 60.5818 4.02347 58.6186 4.02347 56.6963C4.02347 54.774 1 52.8109 1 52.8109V48.062C1 48.062 4.14275 46.3965 4.02347 44.6083C3.9124 42.943 1 41.5863 1 41.5863V38.1325C1 38.1325 3.97669 35.8728 4.02347 33.8154C4.07184 31.6883 1 29.2824 1 29.2824V25.3969C1 25.3969 4.12703 23.1351 4.02347 21.0798C3.92674 19.1599 1 17.1943 1 17.1943V13.3089C1 13.3089 4.08311 11.7996 4.02347 10.071C3.96593 8.40298 1 7.04898 1 7.04898Z" stroke="#EDEF67"/>
<path d="M11 40.6741C11 40.6741 13.7218 43.1155 15.8338 44.0941C27.0284 49.2812 23.3215 14.4063 23.3215 14.4063L27.5575 30.7967L37.1445 14C37.1445 14 26.7341 74.7333 40.3503 61.5076C45.5748 56.4329 49.2837 45.3777 49.2837 45.3777C49.2837 45.3777 40.5706 70.45 48.8147 67.212C51.3439 66.2186 54.2921 63.0648 54.2921 63.0648L57.5032 60.0105L54.416 81.6037C54.416 81.6037 58.2237 56.2058 67.0642 60.3847C74.5838 63.9393 61.5722 83.8227 64.7847 88.1133C67.9971 92.4038 75.2787 83.3937 75.2787 83.3937C75.2787 83.3937 68.2736 107.889 76.5199 104.716C79.0497 103.743 82 100.656 82 100.656" stroke="#EDEF67" stroke-linecap="round" stroke-linejoin="round"/>
</svg>
